<mxfile host="Electron" agent="Mozilla/5.0 (Windows NT 10.0; Win64; x64) AppleWebKit/537.36 (KHTML, like Gecko) draw.io/26.2.15 Chrome/134.0.6998.205 Electron/35.2.1 Safari/537.36" version="26.2.15">
  <diagram name="Pagina-1" id="zWs8yZL4br8EJcONurtU">
    <mxGraphModel dx="303" dy="179" grid="1" gridSize="10" guides="1" tooltips="1" connect="1" arrows="1" fold="1" page="1" pageScale="1" pageWidth="827" pageHeight="1169" math="1" shadow="0">
      <root>
        <mxCell id="0" />
        <mxCell id="1" parent="0" />
        <mxCell id="6R2QVLDid6iBgn5HXUaX-1" value="&lt;font style=&quot;font-size: 9px;&quot;&gt;$$main$$&amp;nbsp;&lt;/font&gt;&lt;div style=&quot;font-size: 9px;&quot;&gt;&lt;font style=&quot;font-size: 9px;&quot;&gt;a = 1, b = 1&lt;/font&gt;&lt;/div&gt;" style="ellipse;whiteSpace=wrap;html=1;" parent="1" vertex="1">
          <mxGeometry x="470" y="160" width="90" height="80" as="geometry" />
        </mxCell>
        <mxCell id="6R2QVLDid6iBgn5HXUaX-2" value="&lt;font style=&quot;font-size: 9px;&quot;&gt;$$\texttt{main}$$&amp;nbsp;&lt;/font&gt;&lt;div style=&quot;font-size: 9px;&quot;&gt;&lt;font style=&quot;font-size: 9px;&quot;&gt;a = 0, b = 0&lt;/font&gt;&lt;/div&gt;" style="ellipse;whiteSpace=wrap;html=1;" parent="1" vertex="1">
          <mxGeometry x="170" y="160" width="90" height="80" as="geometry" />
        </mxCell>
        <mxCell id="6R2QVLDid6iBgn5HXUaX-3" value="&lt;span style=&quot;font-size: 9px;&quot;&gt;$$\texttt{main}$$&lt;/span&gt;&lt;br&gt;&lt;div style=&quot;font-size: 9px;&quot;&gt;&lt;font style=&quot;font-size: 9px;&quot;&gt;a = 1, b = 0&lt;/font&gt;&lt;/div&gt;" style="ellipse;whiteSpace=wrap;html=1;" parent="1" vertex="1">
          <mxGeometry x="270" y="160" width="90" height="80" as="geometry" />
        </mxCell>
        <mxCell id="6R2QVLDid6iBgn5HXUaX-4" value="&lt;span style=&quot;font-size: 9px;&quot;&gt;$$\texttt{main}$$&lt;/span&gt;&lt;br&gt;&lt;div style=&quot;font-size: 9px;&quot;&gt;&lt;font style=&quot;font-size: 9px;&quot;&gt;a = 0, b = 1&lt;/font&gt;&lt;/div&gt;" style="ellipse;whiteSpace=wrap;html=1;" parent="1" vertex="1">
          <mxGeometry x="369" y="160" width="90" height="80" as="geometry" />
        </mxCell>
        <mxCell id="6R2QVLDid6iBgn5HXUaX-29" value="" style="edgeStyle=orthogonalEdgeStyle;rounded=0;orthogonalLoop=1;jettySize=auto;html=1;" parent="1" source="6R2QVLDid6iBgn5HXUaX-5" target="6R2QVLDid6iBgn5HXUaX-21" edge="1">
          <mxGeometry relative="1" as="geometry" />
        </mxCell>
        <mxCell id="6R2QVLDid6iBgn5HXUaX-5" value="&lt;font style=&quot;font-size: 9px;&quot;&gt;$$\texttt{if} \, \, \{\} \, \, \texttt{else} \,\, \{\}$$&amp;nbsp;&lt;/font&gt;&lt;span style=&quot;font-size: 9px; background-color: transparent; color: light-dark(rgb(0, 0, 0), rgb(255, 255, 255));&quot;&gt;&amp;nbsp;&lt;/span&gt;&lt;div&gt;&lt;div style=&quot;font-size: 9px;&quot;&gt;&lt;font style=&quot;font-size: 9px;&quot;&gt;a = 0, b = 0&lt;/font&gt;&lt;/div&gt;&lt;/div&gt;" style="ellipse;whiteSpace=wrap;html=1;" parent="1" vertex="1">
          <mxGeometry x="170" y="260" width="90" height="80" as="geometry" />
        </mxCell>
        <mxCell id="6R2QVLDid6iBgn5HXUaX-30" value="" style="edgeStyle=orthogonalEdgeStyle;rounded=0;orthogonalLoop=1;jettySize=auto;html=1;" parent="1" source="6R2QVLDid6iBgn5HXUaX-6" target="6R2QVLDid6iBgn5HXUaX-22" edge="1">
          <mxGeometry relative="1" as="geometry" />
        </mxCell>
        <mxCell id="6R2QVLDid6iBgn5HXUaX-6" value="&lt;font style=&quot;font-size: 9px;&quot;&gt;$$\texttt{if} \, \, \{\} \, \, \texttt{else} \,\, \{\}$$&amp;nbsp;&lt;/font&gt;&lt;div style=&quot;font-size: 9px;&quot;&gt;&lt;font style=&quot;font-size: 9px;&quot;&gt;a = 1, b = 0&lt;/font&gt;&lt;/div&gt;" style="ellipse;whiteSpace=wrap;html=1;" parent="1" vertex="1">
          <mxGeometry x="270" y="260" width="90" height="80" as="geometry" />
        </mxCell>
        <mxCell id="6R2QVLDid6iBgn5HXUaX-7" value="&lt;span style=&quot;font-size: 9px;&quot;&gt;$$\texttt{if} \, \, \{\} \, \, \texttt{else} \,\, \{\}$$&lt;/span&gt;&lt;span style=&quot;font-size: 9px; background-color: transparent; color: light-dark(rgb(0, 0, 0), rgb(255, 255, 255));&quot;&gt;&amp;nbsp;&lt;/span&gt;&lt;div&gt;&lt;div style=&quot;font-size: 9px;&quot;&gt;&lt;font style=&quot;font-size: 9px;&quot;&gt;a = 0, b = 1&lt;/font&gt;&lt;/div&gt;&lt;/div&gt;" style="ellipse;whiteSpace=wrap;html=1;" parent="1" vertex="1">
          <mxGeometry x="369" y="260" width="90" height="80" as="geometry" />
        </mxCell>
        <mxCell id="6R2QVLDid6iBgn5HXUaX-8" value="&lt;font style=&quot;font-size: 9px;&quot;&gt;$$if \, \, \{\} \, \, else \,\, \{\}$$&amp;nbsp;&lt;/font&gt;&lt;span style=&quot;color: light-dark(rgb(0, 0, 0), rgb(255, 255, 255)); background-color: transparent; font-size: 9px;&quot;&gt;&amp;nbsp;&lt;/span&gt;&lt;div&gt;&lt;div style=&quot;font-size: 9px;&quot;&gt;a = 0, b = 1&lt;/div&gt;&lt;/div&gt;" style="ellipse;whiteSpace=wrap;html=1;" parent="1" vertex="1">
          <mxGeometry x="470" y="260" width="90" height="80" as="geometry" />
        </mxCell>
        <mxCell id="6R2QVLDid6iBgn5HXUaX-9" value="" style="endArrow=classic;html=1;rounded=0;exitX=0.5;exitY=1;exitDx=0;exitDy=0;entryX=0.5;entryY=0;entryDx=0;entryDy=0;" parent="1" source="6R2QVLDid6iBgn5HXUaX-2" target="6R2QVLDid6iBgn5HXUaX-5" edge="1">
          <mxGeometry width="50" height="50" relative="1" as="geometry">
            <mxPoint x="300" y="290" as="sourcePoint" />
            <mxPoint x="350" y="240" as="targetPoint" />
          </mxGeometry>
        </mxCell>
        <mxCell id="6R2QVLDid6iBgn5HXUaX-10" value="" style="endArrow=classic;html=1;rounded=0;exitX=0.5;exitY=1;exitDx=0;exitDy=0;entryX=0.5;entryY=0;entryDx=0;entryDy=0;" parent="1" edge="1">
          <mxGeometry width="50" height="50" relative="1" as="geometry">
            <mxPoint x="314.8" y="240" as="sourcePoint" />
            <mxPoint x="314.8" y="260" as="targetPoint" />
          </mxGeometry>
        </mxCell>
        <mxCell id="6R2QVLDid6iBgn5HXUaX-11" value="" style="endArrow=classic;html=1;rounded=0;exitX=0.5;exitY=1;exitDx=0;exitDy=0;entryX=0.5;entryY=0;entryDx=0;entryDy=0;" parent="1" edge="1">
          <mxGeometry width="50" height="50" relative="1" as="geometry">
            <mxPoint x="413.8" y="240" as="sourcePoint" />
            <mxPoint x="413.8" y="260" as="targetPoint" />
          </mxGeometry>
        </mxCell>
        <mxCell id="6R2QVLDid6iBgn5HXUaX-12" value="" style="endArrow=classic;html=1;rounded=0;exitX=0.5;exitY=1;exitDx=0;exitDy=0;entryX=0.5;entryY=0;entryDx=0;entryDy=0;" parent="1" edge="1">
          <mxGeometry width="50" height="50" relative="1" as="geometry">
            <mxPoint x="514.8" y="240" as="sourcePoint" />
            <mxPoint x="514.8" y="260" as="targetPoint" />
          </mxGeometry>
        </mxCell>
        <mxCell id="6R2QVLDid6iBgn5HXUaX-13" value="&lt;font style=&quot;font-size: 10px;&quot;&gt;$$ c = b $$&lt;/font&gt;&lt;div style=&quot;font-size: 10px;&quot;&gt;&lt;font style=&quot;font-size: 10px;&quot;&gt;a = 0, b = 0&lt;/font&gt;&lt;/div&gt;" style="ellipse;whiteSpace=wrap;html=1;" parent="1" vertex="1">
          <mxGeometry x="175" y="360" width="80" height="70" as="geometry" />
        </mxCell>
        <mxCell id="6R2QVLDid6iBgn5HXUaX-14" value="&lt;font style=&quot;font-size: 10px;&quot;&gt;$$ c = \neg b $$&lt;/font&gt;&lt;div style=&quot;font-size: 10px;&quot;&gt;&lt;font style=&quot;font-size: 10px;&quot;&gt;a = 1, b = 0&lt;/font&gt;&lt;/div&gt;" style="ellipse;whiteSpace=wrap;html=1;" parent="1" vertex="1">
          <mxGeometry x="275" y="360" width="80" height="70" as="geometry" />
        </mxCell>
        <mxCell id="6R2QVLDid6iBgn5HXUaX-15" value="&lt;font style=&quot;font-size: 10px;&quot;&gt;$$ c = b $$&lt;/font&gt;&lt;div style=&quot;font-size: 10px;&quot;&gt;&lt;font style=&quot;font-size: 10px;&quot;&gt;a = 0, b = 1&lt;/font&gt;&lt;/div&gt;" style="ellipse;whiteSpace=wrap;html=1;" parent="1" vertex="1">
          <mxGeometry x="373.5" y="360" width="81" height="70" as="geometry" />
        </mxCell>
        <mxCell id="6R2QVLDid6iBgn5HXUaX-16" value="&lt;font style=&quot;font-size: 10px;&quot;&gt;$$ c = \neg b $$&lt;/font&gt;&lt;div style=&quot;font-size: 10px;&quot;&gt;&lt;font style=&quot;font-size: 10px;&quot;&gt;a = 1, b = 1&lt;/font&gt;&lt;/div&gt;" style="ellipse;whiteSpace=wrap;html=1;" parent="1" vertex="1">
          <mxGeometry x="475" y="360" width="80" height="70" as="geometry" />
        </mxCell>
        <mxCell id="6R2QVLDid6iBgn5HXUaX-17" value="" style="endArrow=classic;html=1;rounded=0;exitX=0.5;exitY=1;exitDx=0;exitDy=0;entryX=0.5;entryY=0;entryDx=0;entryDy=0;" parent="1" edge="1">
          <mxGeometry width="50" height="50" relative="1" as="geometry">
            <mxPoint x="214.8" y="340" as="sourcePoint" />
            <mxPoint x="214.8" y="360" as="targetPoint" />
          </mxGeometry>
        </mxCell>
        <mxCell id="6R2QVLDid6iBgn5HXUaX-18" value="" style="endArrow=classic;html=1;rounded=0;exitX=0.5;exitY=1;exitDx=0;exitDy=0;entryX=0.5;entryY=0;entryDx=0;entryDy=0;" parent="1" edge="1">
          <mxGeometry width="50" height="50" relative="1" as="geometry">
            <mxPoint x="314.8" y="340" as="sourcePoint" />
            <mxPoint x="314.8" y="360" as="targetPoint" />
          </mxGeometry>
        </mxCell>
        <mxCell id="6R2QVLDid6iBgn5HXUaX-19" value="" style="endArrow=classic;html=1;rounded=0;exitX=0.5;exitY=1;exitDx=0;exitDy=0;entryX=0.5;entryY=0;entryDx=0;entryDy=0;" parent="1" edge="1">
          <mxGeometry width="50" height="50" relative="1" as="geometry">
            <mxPoint x="413.8" y="340" as="sourcePoint" />
            <mxPoint x="413.8" y="360" as="targetPoint" />
          </mxGeometry>
        </mxCell>
        <mxCell id="6R2QVLDid6iBgn5HXUaX-20" value="" style="endArrow=classic;html=1;rounded=0;exitX=0.5;exitY=1;exitDx=0;exitDy=0;entryX=0.5;entryY=0;entryDx=0;entryDy=0;" parent="1" edge="1">
          <mxGeometry width="50" height="50" relative="1" as="geometry">
            <mxPoint x="514.8" y="340" as="sourcePoint" />
            <mxPoint x="514.8" y="360" as="targetPoint" />
          </mxGeometry>
        </mxCell>
        <mxCell id="6R2QVLDid6iBgn5HXUaX-21" value="&lt;font style=&quot;font-size: 8px;&quot;&gt;$$ d = c \oplus \texttt{true} $$&lt;/font&gt;&lt;div style=&quot;font-size: 8px;&quot;&gt;&lt;font style=&quot;font-size: 8px;&quot;&gt;a = 0, b = 0, c = 0&lt;/font&gt;&lt;/div&gt;" style="ellipse;whiteSpace=wrap;html=1;" parent="1" vertex="1">
          <mxGeometry x="175" y="450" width="80" height="70" as="geometry" />
        </mxCell>
        <mxCell id="6R2QVLDid6iBgn5HXUaX-22" value="&lt;span style=&quot;font-size: 8px;&quot;&gt;$$ d = c \oplus \texttt{true} $$&lt;/span&gt;&lt;br&gt;&lt;div style=&quot;font-size: 8px;&quot;&gt;&lt;font style=&quot;font-size: 8px;&quot;&gt;a = 1, b = 0, c = 1&lt;/font&gt;&lt;/div&gt;" style="ellipse;whiteSpace=wrap;html=1;" parent="1" vertex="1">
          <mxGeometry x="275" y="450" width="80" height="70" as="geometry" />
        </mxCell>
        <mxCell id="6R2QVLDid6iBgn5HXUaX-23" value="" style="endArrow=classic;html=1;rounded=0;entryX=0.455;entryY=-0.039;entryDx=0;entryDy=0;entryPerimeter=0;" parent="1" edge="1">
          <mxGeometry width="50" height="50" relative="1" as="geometry">
            <mxPoint x="214.53" y="113.12" as="sourcePoint" />
            <mxPoint x="215.47999999999993" y="160" as="targetPoint" />
          </mxGeometry>
        </mxCell>
        <mxCell id="6R2QVLDid6iBgn5HXUaX-24" value="" style="endArrow=classic;html=1;rounded=0;entryX=0.455;entryY=-0.039;entryDx=0;entryDy=0;entryPerimeter=0;" parent="1" edge="1">
          <mxGeometry width="50" height="50" relative="1" as="geometry">
            <mxPoint x="314.5" y="113" as="sourcePoint" />
            <mxPoint x="315.5" y="160" as="targetPoint" />
          </mxGeometry>
        </mxCell>
        <mxCell id="6R2QVLDid6iBgn5HXUaX-25" value="" style="endArrow=classic;html=1;rounded=0;entryX=0.455;entryY=-0.039;entryDx=0;entryDy=0;entryPerimeter=0;" parent="1" edge="1">
          <mxGeometry width="50" height="50" relative="1" as="geometry">
            <mxPoint x="414" y="113" as="sourcePoint" />
            <mxPoint x="415" y="160" as="targetPoint" />
          </mxGeometry>
        </mxCell>
        <mxCell id="6R2QVLDid6iBgn5HXUaX-26" value="" style="endArrow=classic;html=1;rounded=0;entryX=0.455;entryY=-0.039;entryDx=0;entryDy=0;entryPerimeter=0;" parent="1" edge="1">
          <mxGeometry width="50" height="50" relative="1" as="geometry">
            <mxPoint x="514.5" y="113" as="sourcePoint" />
            <mxPoint x="515.5" y="160" as="targetPoint" />
          </mxGeometry>
        </mxCell>
        <mxCell id="6R2QVLDid6iBgn5HXUaX-27" value="&lt;div style=&quot;font-size: 8px;&quot;&gt;&lt;font style=&quot;font-size: 8px;&quot;&gt;$$ d = c \oplus \texttt{true} $$a = 1, b = 1, c = 1&lt;/font&gt;&lt;/div&gt;" style="ellipse;whiteSpace=wrap;html=1;" parent="1" vertex="1">
          <mxGeometry x="374" y="450" width="80" height="70" as="geometry" />
        </mxCell>
        <mxCell id="6R2QVLDid6iBgn5HXUaX-28" value="&lt;font style=&quot;font-size: 8px;&quot;&gt;$$ d = c \oplus true $$&lt;/font&gt;&lt;div style=&quot;font-size: 8px;&quot;&gt;&lt;font style=&quot;font-size: 8px;&quot;&gt;a = 1, b = 1, c = 0&lt;/font&gt;&lt;/div&gt;" style="ellipse;whiteSpace=wrap;html=1;" parent="1" vertex="1">
          <mxGeometry x="475" y="450" width="80" height="70" as="geometry" />
        </mxCell>
        <mxCell id="6R2QVLDid6iBgn5HXUaX-32" value="" style="endArrow=classic;html=1;rounded=0;exitX=0.5;exitY=1;exitDx=0;exitDy=0;entryX=0.5;entryY=0;entryDx=0;entryDy=0;" parent="1" edge="1">
          <mxGeometry width="50" height="50" relative="1" as="geometry">
            <mxPoint x="514.8" y="430" as="sourcePoint" />
            <mxPoint x="514.8" y="450" as="targetPoint" />
          </mxGeometry>
        </mxCell>
        <mxCell id="6R2QVLDid6iBgn5HXUaX-33" value="" style="endArrow=classic;html=1;rounded=0;exitX=0.5;exitY=1;exitDx=0;exitDy=0;entryX=0.5;entryY=0;entryDx=0;entryDy=0;" parent="1" edge="1">
          <mxGeometry width="50" height="50" relative="1" as="geometry">
            <mxPoint x="413.8" y="430" as="sourcePoint" />
            <mxPoint x="413.8" y="450" as="targetPoint" />
          </mxGeometry>
        </mxCell>
        <mxCell id="6R2QVLDid6iBgn5HXUaX-34" value="&lt;font style=&quot;font-size: 8px;&quot;&gt;$$\texttt{return} \, \, d$$&lt;/font&gt;&lt;div style=&quot;font-size: 8px;&quot;&gt;&lt;font style=&quot;font-size: 8px;&quot;&gt;a = 0, b = 0, c = 0, d = 1&lt;/font&gt;&lt;/div&gt;" style="ellipse;whiteSpace=wrap;html=1;" parent="1" vertex="1">
          <mxGeometry x="175" y="540" width="80" height="70" as="geometry" />
        </mxCell>
        <mxCell id="6R2QVLDid6iBgn5HXUaX-36" value="&lt;span style=&quot;font-size: 8px;&quot;&gt;$$\texttt{return} \, \, d$$&lt;/span&gt;&lt;span style=&quot;font-size: 8px; background-color: transparent; color: light-dark(rgb(0, 0, 0), rgb(255, 255, 255));&quot;&gt;a = 1, b = 0, c = 1, d = 0&lt;/span&gt;" style="ellipse;whiteSpace=wrap;html=1;" parent="1" vertex="1">
          <mxGeometry x="275" y="540" width="80" height="70" as="geometry" />
        </mxCell>
        <mxCell id="6R2QVLDid6iBgn5HXUaX-37" value="&lt;div style=&quot;font-size: 8px;&quot;&gt;$$\texttt{return} \, \, d$$&lt;span style=&quot;background-color: transparent; color: light-dark(rgb(0, 0, 0), rgb(255, 255, 255));&quot;&gt;a = 1, b = 1, c = 1, d = 0&lt;/span&gt;&lt;/div&gt;" style="ellipse;whiteSpace=wrap;html=1;" parent="1" vertex="1">
          <mxGeometry x="374.5" y="540" width="80" height="70" as="geometry" />
        </mxCell>
        <mxCell id="6R2QVLDid6iBgn5HXUaX-38" value="&lt;font style=&quot;font-size: 8px;&quot;&gt;$$return \, \, d$$&lt;/font&gt;&lt;div&gt;&lt;div style=&quot;font-size: 8px;&quot;&gt;&lt;font style=&quot;font-size: 8px;&quot;&gt;a = 1, b = 1, c = 0, d = 0&lt;/font&gt;&lt;/div&gt;&lt;/div&gt;" style="ellipse;whiteSpace=wrap;html=1;" parent="1" vertex="1">
          <mxGeometry x="475" y="540" width="80" height="70" as="geometry" />
        </mxCell>
        <mxCell id="6R2QVLDid6iBgn5HXUaX-39" value="" style="edgeStyle=orthogonalEdgeStyle;rounded=0;orthogonalLoop=1;jettySize=auto;html=1;" parent="1" edge="1">
          <mxGeometry relative="1" as="geometry">
            <mxPoint x="215" y="520" as="sourcePoint" />
            <mxPoint x="214.8" y="540" as="targetPoint" />
          </mxGeometry>
        </mxCell>
        <mxCell id="6R2QVLDid6iBgn5HXUaX-42" value="" style="edgeStyle=orthogonalEdgeStyle;rounded=0;orthogonalLoop=1;jettySize=auto;html=1;" parent="1" edge="1">
          <mxGeometry relative="1" as="geometry">
            <mxPoint x="315.09999999999997" y="520" as="sourcePoint" />
            <mxPoint x="314.9" y="540" as="targetPoint" />
          </mxGeometry>
        </mxCell>
        <mxCell id="6R2QVLDid6iBgn5HXUaX-45" value="" style="edgeStyle=orthogonalEdgeStyle;rounded=0;orthogonalLoop=1;jettySize=auto;html=1;" parent="1" edge="1">
          <mxGeometry relative="1" as="geometry">
            <mxPoint x="414.09" y="520" as="sourcePoint" />
            <mxPoint x="413.89" y="540" as="targetPoint" />
          </mxGeometry>
        </mxCell>
        <mxCell id="6R2QVLDid6iBgn5HXUaX-47" value="" style="edgeStyle=orthogonalEdgeStyle;rounded=0;orthogonalLoop=1;jettySize=auto;html=1;" parent="1" edge="1">
          <mxGeometry relative="1" as="geometry">
            <mxPoint x="515.1" y="520" as="sourcePoint" />
            <mxPoint x="514.9" y="540" as="targetPoint" />
          </mxGeometry>
        </mxCell>
        <mxCell id="6R2QVLDid6iBgn5HXUaX-48" value="&lt;font&gt;&lt;font style=&quot;font-size: 8px;&quot;&gt;$$ \downarrow$$&lt;/font&gt;&lt;/font&gt;&lt;div&gt;&lt;font style=&quot;font-size: 8px;&quot;&gt;a = 0, b = 0, c = 0,&amp;nbsp;&lt;/font&gt;&lt;/div&gt;&lt;div&gt;&lt;font style=&quot;font-size: 8px;&quot;&gt;d = 1&lt;/font&gt;&lt;/div&gt;" style="ellipse;whiteSpace=wrap;html=1;" parent="1" vertex="1">
          <mxGeometry x="175" y="640" width="80" height="70" as="geometry" />
        </mxCell>
        <mxCell id="6R2QVLDid6iBgn5HXUaX-49" value="" style="endArrow=classic;html=1;rounded=0;exitX=0.5;exitY=1;exitDx=0;exitDy=0;entryX=0.5;entryY=0;entryDx=0;entryDy=0;" parent="1" source="6R2QVLDid6iBgn5HXUaX-34" target="6R2QVLDid6iBgn5HXUaX-48" edge="1">
          <mxGeometry width="50" height="50" relative="1" as="geometry">
            <mxPoint x="350" y="560" as="sourcePoint" />
            <mxPoint x="400" y="510" as="targetPoint" />
          </mxGeometry>
        </mxCell>
        <mxCell id="6R2QVLDid6iBgn5HXUaX-54" value="" style="endArrow=classic;html=1;rounded=0;exitX=0.408;exitY=0.995;exitDx=0;exitDy=0;exitPerimeter=0;curved=1;entryX=0.625;entryY=0.995;entryDx=0;entryDy=0;entryPerimeter=0;" parent="1" source="6R2QVLDid6iBgn5HXUaX-48" target="6R2QVLDid6iBgn5HXUaX-48" edge="1">
          <mxGeometry width="50" height="50" relative="1" as="geometry">
            <mxPoint x="321.5807226140945" y="699.6300404011183" as="sourcePoint" />
            <mxPoint x="225" y="710" as="targetPoint" />
            <Array as="points">
              <mxPoint x="200" y="760" />
              <mxPoint x="230" y="760" />
            </Array>
          </mxGeometry>
        </mxCell>
        <mxCell id="eHnY2VJp-3-AX8RJ2hF6-1" value="&lt;font style=&quot;font-size: 8px;&quot;&gt;$$ \downarrow$$&lt;/font&gt;&lt;div&gt;&lt;span style=&quot;font-size: 8px;&quot;&gt;a = 1, b = 0, c = 1, d = 0&lt;/span&gt;&lt;/div&gt;" style="ellipse;whiteSpace=wrap;html=1;" parent="1" vertex="1">
          <mxGeometry x="275" y="640" width="80" height="70" as="geometry" />
        </mxCell>
        <mxCell id="eHnY2VJp-3-AX8RJ2hF6-2" value="" style="endArrow=classic;html=1;rounded=0;exitX=0.408;exitY=0.995;exitDx=0;exitDy=0;exitPerimeter=0;curved=1;entryX=0.625;entryY=0.995;entryDx=0;entryDy=0;entryPerimeter=0;" parent="1" source="eHnY2VJp-3-AX8RJ2hF6-1" target="eHnY2VJp-3-AX8RJ2hF6-1" edge="1">
          <mxGeometry width="50" height="50" relative="1" as="geometry">
            <mxPoint x="426.5807226140945" y="699.6300404011183" as="sourcePoint" />
            <mxPoint x="330" y="710" as="targetPoint" />
            <Array as="points">
              <mxPoint x="305" y="760" />
              <mxPoint x="335" y="760" />
            </Array>
          </mxGeometry>
        </mxCell>
        <mxCell id="eHnY2VJp-3-AX8RJ2hF6-3" value="&lt;font style=&quot;font-size: 8px;&quot;&gt;$$ \downarrow$$&lt;/font&gt;&lt;div&gt;&lt;span style=&quot;font-size: 8px;&quot;&gt;a = 1, b = 1, c = 1, d = 0&lt;/span&gt;&lt;/div&gt;" style="ellipse;whiteSpace=wrap;html=1;" parent="1" vertex="1">
          <mxGeometry x="374" y="640" width="80" height="70" as="geometry" />
        </mxCell>
        <mxCell id="eHnY2VJp-3-AX8RJ2hF6-4" value="" style="endArrow=classic;html=1;rounded=0;exitX=0.408;exitY=0.995;exitDx=0;exitDy=0;exitPerimeter=0;curved=1;entryX=0.625;entryY=0.995;entryDx=0;entryDy=0;entryPerimeter=0;" parent="1" source="eHnY2VJp-3-AX8RJ2hF6-3" target="eHnY2VJp-3-AX8RJ2hF6-3" edge="1">
          <mxGeometry width="50" height="50" relative="1" as="geometry">
            <mxPoint x="525.5807226140945" y="699.6300404011183" as="sourcePoint" />
            <mxPoint x="429" y="710" as="targetPoint" />
            <Array as="points">
              <mxPoint x="404" y="760" />
              <mxPoint x="434" y="760" />
            </Array>
          </mxGeometry>
        </mxCell>
        <mxCell id="eHnY2VJp-3-AX8RJ2hF6-5" value="&lt;font style=&quot;font-size: 8px;&quot;&gt;$$ \downarrow$$&lt;/font&gt;&lt;div&gt;&lt;span style=&quot;font-size: 8px;&quot;&gt;a = 1, b = 1, c = 0, d = 0&lt;/span&gt;&lt;/div&gt;" style="ellipse;whiteSpace=wrap;html=1;" parent="1" vertex="1">
          <mxGeometry x="475" y="640" width="80" height="70" as="geometry" />
        </mxCell>
        <mxCell id="eHnY2VJp-3-AX8RJ2hF6-6" value="" style="endArrow=classic;html=1;rounded=0;exitX=0.408;exitY=0.995;exitDx=0;exitDy=0;exitPerimeter=0;curved=1;entryX=0.625;entryY=0.995;entryDx=0;entryDy=0;entryPerimeter=0;" parent="1" source="eHnY2VJp-3-AX8RJ2hF6-5" target="eHnY2VJp-3-AX8RJ2hF6-5" edge="1">
          <mxGeometry width="50" height="50" relative="1" as="geometry">
            <mxPoint x="621.5807226140945" y="699.6300404011183" as="sourcePoint" />
            <mxPoint x="525" y="710" as="targetPoint" />
            <Array as="points">
              <mxPoint x="500" y="760" />
              <mxPoint x="530" y="760" />
            </Array>
          </mxGeometry>
        </mxCell>
        <mxCell id="eHnY2VJp-3-AX8RJ2hF6-10" value="" style="endArrow=classic;html=1;rounded=0;exitX=0.5;exitY=1;exitDx=0;exitDy=0;entryX=0.5;entryY=0;entryDx=0;entryDy=0;" parent="1" edge="1">
          <mxGeometry width="50" height="50" relative="1" as="geometry">
            <mxPoint x="314.79" y="610" as="sourcePoint" />
            <mxPoint x="314.79" y="640" as="targetPoint" />
          </mxGeometry>
        </mxCell>
        <mxCell id="eHnY2VJp-3-AX8RJ2hF6-11" value="" style="endArrow=classic;html=1;rounded=0;exitX=0.5;exitY=1;exitDx=0;exitDy=0;entryX=0.5;entryY=0;entryDx=0;entryDy=0;" parent="1" edge="1">
          <mxGeometry width="50" height="50" relative="1" as="geometry">
            <mxPoint x="414.29" y="610" as="sourcePoint" />
            <mxPoint x="414.29" y="640" as="targetPoint" />
          </mxGeometry>
        </mxCell>
        <mxCell id="eHnY2VJp-3-AX8RJ2hF6-12" value="" style="endArrow=classic;html=1;rounded=0;exitX=0.5;exitY=1;exitDx=0;exitDy=0;entryX=0.5;entryY=0;entryDx=0;entryDy=0;" parent="1" edge="1">
          <mxGeometry width="50" height="50" relative="1" as="geometry">
            <mxPoint x="514.79" y="610" as="sourcePoint" />
            <mxPoint x="514.79" y="640" as="targetPoint" />
          </mxGeometry>
        </mxCell>
      </root>
    </mxGraphModel>
  </diagram>
</mxfile>
